<svg width="16" height="13" viewBox="0 0 16 13" fill="none" xmlns="http://www.w3.org/2000/svg">
<path opacity="0.35" d="M3.27273 13C2.70545 13 2.21091 12.6921 1.97091 12.2475L0.0727273 5.77558L0 5.47457C0 5.29312 0.0766231 5.11911 0.213013 4.99081C0.349403 4.86251 0.534388 4.79043 0.727273 4.79043H4.05818L7.40364 0.295699C7.47069 0.203939 7.5606 0.129017 7.66553 0.0774749C7.77045 0.0259327 7.8872 -0.000662294 8.00556 1.25289e-05C8.12393 0.000687351 8.24032 0.0286114 8.34458 0.0813461C8.44883 0.134081 8.53777 0.210023 8.60364 0.30254L11.9418 4.79043H15.2727C15.4656 4.79043 15.6506 4.86251 15.787 4.99081C15.9234 5.11911 16 5.29312 16 5.47457L15.9709 5.67296L14.0291 12.2475C13.7891 12.6921 13.2945 13 12.7273 13H3.27273ZM8 1.87604L5.81818 4.79043H10.1818L8 1.87604ZM8 7.52696C7.61423 7.52696 7.24426 7.67111 6.97148 7.92771C6.6987 8.18431 6.54545 8.53233 6.54545 8.89522C6.54545 9.2581 6.6987 9.60612 6.97148 9.86272C7.24426 10.1193 7.61423 10.2635 8 10.2635C8.38577 10.2635 8.75574 10.1193 9.02852 9.86272C9.3013 9.60612 9.45455 9.2581 9.45455 8.89522C9.45455 8.53233 9.3013 8.18431 9.02852 7.92771C8.75574 7.67111 8.38577 7.52696 8 7.52696Z" fill="white"/>
</svg>
