<svg width="24" height="27" viewBox="0 0 24 27" fill="none" xmlns="http://www.w3.org/2000/svg">
<path d="M9.43423 11C8.63201 11 8 11.6754 8 12.5C8 13.3218 8.64681 14 9.43423 14C10.235 14 10.867 13.3218 10.867 12.5C10.8833 11.6739 10.235 11 9.43423 11ZM14.5673 11C13.765 11 13.133 11.6754 13.133 12.5C13.133 13.3218 13.7798 14 14.5673 14C15.368 14 16 13.3218 16 12.5C15.9985 11.6739 15.368 11 14.5673 11Z" fill="white"/>
<path d="M21.1893 0H2.81071C2.44066 0.000931882 2.07441 0.0736039 1.73289 0.213867C1.39137 0.35413 1.08125 0.559236 0.820253 0.817476C0.559255 1.07572 0.352484 1.38203 0.211746 1.71893C0.0710084 2.05584 -0.000939832 2.41673 9.26889e-06 2.781V21.033C9.26889e-06 22.572 1.26172 23.814 2.81071 23.814H18.3627L17.6337 21.3144L19.3905 22.9216L21.0493 24.4336L24 27V2.781C24.0009 2.41673 23.929 2.05584 23.7883 1.71893C23.6475 1.38203 23.4407 1.07572 23.1797 0.817476C22.9187 0.559236 22.6086 0.35413 22.2671 0.213867C21.9256 0.0736039 21.5593 0.000931882 21.1893 0ZM15.8941 17.631C15.8941 17.631 15.4004 17.0512 14.9904 16.5354C16.7863 16.0352 17.472 14.9296 17.472 14.9296C16.909 15.2934 16.3749 15.552 15.8941 15.7282C14.144 16.4492 12.2167 16.646 10.3536 16.2938C9.66511 16.1607 8.99053 15.9656 8.33829 15.7112C7.9943 15.5825 7.65999 15.4301 7.33787 15.255C7.296 15.2252 7.25558 15.2138 7.21516 15.1868C7.19354 15.1767 7.17435 15.1621 7.15886 15.1442C6.912 15.0106 6.77486 14.9168 6.77486 14.9168C6.77486 14.9168 7.43315 15.9968 9.17558 16.5098C8.76415 17.0214 8.256 17.631 8.256 17.631C5.22587 17.5358 4.07531 15.579 4.07531 15.579C4.07531 11.232 6.05017 7.70921 6.05017 7.70921C8.02502 6.24979 9.90316 6.291 9.90316 6.291L10.0403 6.453C7.57173 7.15642 6.43272 8.22221 6.43272 8.22221C6.43272 8.22221 6.73588 8.06021 7.24259 7.83142C8.7093 7.19763 9.87429 7.02142 10.355 6.98021C10.4373 6.96742 10.5066 6.95321 10.5889 6.95321C12.9668 6.63776 15.3848 7.08262 17.4864 8.22221C17.4864 8.22221 16.4023 7.21042 14.0709 6.50842L14.2629 6.29242C14.2629 6.29242 16.1424 6.25121 18.1158 7.71063C18.1158 7.71063 20.0907 11.2334 20.0907 15.5804C20.0907 15.579 18.9257 17.5358 15.8941 17.631Z" fill="white"/>
</svg>
