<svg width="19" height="17" viewBox="0 0 19 17" fill="none" xmlns="http://www.w3.org/2000/svg">
<path d="M7.95542 8.585C8.26994 7.87387 8.71753 7.23347 9.27263 6.70037C9.82773 6.16726 10.4795 5.7519 11.1906 5.478C11.9018 5.2041 12.6584 5.07703 13.4173 5.10406C14.1761 5.13108 14.9224 5.31167 15.6134 5.6355C16.3046 5.95911 16.927 6.41965 17.4451 6.9908C17.9632 7.56196 18.3669 8.23254 18.6331 8.96425C18.8993 9.69596 19.0228 10.4745 18.9965 11.2553C18.9703 12.0361 18.7948 12.804 18.48 13.515C18.022 14.5554 17.2818 15.4377 16.3483 16.0559C15.4149 16.6741 14.3278 17.0019 13.2177 17C10.9872 17 8.94675 15.674 7.98847 13.6H0V11.9C0.0495665 10.931 0.693931 10.1405 1.93309 9.503C3.17226 8.8655 4.72534 8.534 6.60886 8.5C7.07975 8.5 7.52585 8.5425 7.95542 8.585ZM6.60886 0C7.53411 0.0255 8.31065 0.357 8.93023 0.9945C9.54981 1.632 9.85547 2.431 9.85547 3.4C9.85547 4.369 9.54981 5.168 8.93023 5.8055C8.31065 6.443 7.53411 6.7575 6.60886 6.7575C5.68362 6.7575 4.90708 6.443 4.2875 5.8055C3.66792 5.168 3.36226 4.369 3.36226 3.4C3.36226 2.431 3.66792 1.632 4.2875 0.9945C4.90708 0.357 5.68362 0.0255 6.60886 0ZM13.2177 15.3C14.3132 15.3 15.3638 14.8522 16.1385 14.0552C16.9131 13.2582 17.3483 12.1772 17.3483 11.05C17.3483 9.92282 16.9131 8.84182 16.1385 8.04479C15.3638 7.24776 14.3132 6.8 13.2177 6.8C12.1222 6.8 11.0716 7.24776 10.297 8.04479C9.52237 8.84182 9.08719 9.92282 9.08719 11.05C9.08719 12.1772 9.52237 13.2582 10.297 14.0552C11.0716 14.8522 12.1222 15.3 13.2177 15.3ZM12.3916 8.5H13.6308V10.897L15.6465 12.0955L15.0269 13.2005L12.3916 11.6365V8.5Z" fill="white"/>
</svg>
