<svg width="19" height="19" viewBox="0 0 19 19" fill="none" xmlns="http://www.w3.org/2000/svg">
<path d="M2.7835 0C1.89998 0.923948 1.19925 2.02189 0.721563 3.23073C0.24388 4.43958 -0.00133545 5.7355 5.46981e-06 7.04405C5.46981e-06 9.79392 1.064 12.2847 2.7835 14.0881L4.123 12.6833C3.41484 11.9445 2.85365 11.0656 2.47204 10.0976C2.09043 9.1295 1.89598 8.09157 1.9 7.04405C1.9 4.84216 2.7455 2.83954 4.123 1.40482L2.7835 0ZM16.2165 0L14.877 1.40482C15.5844 2.14412 16.1451 3.02314 16.5267 3.99107C16.9083 4.95901 17.1031 5.99666 17.1 7.04405C17.1 9.2559 16.2545 11.2486 14.877 12.6833L16.2165 14.0881C17.1 13.1641 17.8008 12.0662 18.2784 10.8574C18.7561 9.64852 19.0013 8.35259 19 7.04405C19 4.29418 17.936 1.80336 16.2165 0ZM5.472 2.81961C4.94171 3.37353 4.52101 4.03189 4.23408 4.75686C3.94714 5.48182 3.79963 6.25911 3.8 7.04405C3.8 8.68799 4.4365 10.1825 5.472 11.2685L6.8115 9.86366C6.45831 9.4936 6.1783 9.05401 5.98756 8.57014C5.79681 8.08627 5.69909 7.56764 5.7 7.04405C5.7 5.93812 6.1275 4.94179 6.8115 4.22444L5.472 2.81961ZM13.528 2.81961L12.1885 4.22444C12.5417 4.59449 12.8217 5.03408 13.0124 5.51796C13.2032 6.00183 13.3009 6.52045 13.3 7.04405C13.3 8.14997 12.8725 9.1463 12.1885 9.86366L13.528 11.2685C14.0583 10.7146 14.479 10.0562 14.7659 9.33124C15.0529 8.60627 15.2004 7.82899 15.2 7.04405C15.2 5.4001 14.5635 3.90561 13.528 2.81961ZM9.5 5.05139C8.99609 5.05139 8.51282 5.26133 8.1565 5.63503C7.80018 6.00872 7.6 6.51556 7.6 7.04405C7.6 7.57253 7.80018 8.07937 8.1565 8.45307C8.51282 8.82677 8.99609 9.03671 9.5 9.03671C10.0039 9.03671 10.4872 8.82677 10.8435 8.45307C11.1998 8.07937 11.4 7.57253 11.4 7.04405C11.4 6.51556 11.1998 6.00872 10.8435 5.63503C10.4872 5.26133 10.0039 5.05139 9.5 5.05139ZM8.55 11.0294V15.0147H7.6C7.34805 15.0147 7.10641 15.1197 6.92825 15.3065C6.75009 15.4933 6.65 15.7468 6.65 16.011H5.46981e-06V18.0037H6.65C6.65 18.2679 6.75009 18.5213 6.92825 18.7082C7.10641 18.895 7.34805 19 7.6 19H11.4C11.652 19 11.8936 18.895 12.0717 18.7082C12.2499 18.5213 12.35 18.2679 12.35 18.0037H19V16.011H12.35C12.35 15.7468 12.2499 15.4933 12.0717 15.3065C11.8936 15.1197 11.652 15.0147 11.4 15.0147H10.45V11.0294H8.55Z" fill="white"/>
</svg>
