<svg width="19" height="18" viewBox="0 0 19 18" fill="none" xmlns="http://www.w3.org/2000/svg">
<path d="M18 15V16C18 16.5304 17.7893 17.0391 17.4142 17.4142C17.0391 17.7893 16.5304 18 16 18H2C1.46957 18 0.960859 17.7893 0.585786 17.4142C0.210714 17.0391 0 16.5304 0 16V2C0 1.46957 0.210714 0.960859 0.585786 0.585786C0.960859 0.210714 1.46957 0 2 0H16C16.5304 0 17.0391 0.210714 17.4142 0.585786C17.7893 0.960859 18 1.46957 18 2V3H9C8.46957 3 7.96086 3.21071 7.58579 3.58579C7.21071 3.96086 7 4.46957 7 5V13C7 13.5304 7.21071 14.0391 7.58579 14.4142C7.96086 14.7893 8.46957 15 9 15H18ZM9 13H19V5H9V13ZM13 10.5C12.6022 10.5 12.2206 10.342 11.9393 10.0607C11.658 9.77936 11.5 9.39782 11.5 9C11.5 8.60218 11.658 8.22064 11.9393 7.93934C12.2206 7.65804 12.6022 7.5 13 7.5C13.3978 7.5 13.7794 7.65804 14.0607 7.93934C14.342 8.22064 14.5 8.60218 14.5 9C14.5 9.39782 14.342 9.77936 14.0607 10.0607C13.7794 10.342 13.3978 10.5 13 10.5Z" fill="white"/>
</svg>
