<svg width="19" height="19" viewBox="0 0 19 19" fill="none" xmlns="http://www.w3.org/2000/svg">
<path d="M2.11111 0H16.8889C17.4488 0 17.9858 0.22242 18.3817 0.61833C18.7776 1.01424 19 1.55121 19 2.11111V16.8889C19 17.4488 18.7776 17.9858 18.3817 18.3817C17.9858 18.7776 17.4488 19 16.8889 19H2.11111C1.55121 19 1.01424 18.7776 0.61833 18.3817C0.22242 17.9858 0 17.4488 0 16.8889V2.11111C0 1.55121 0.22242 1.01424 0.61833 0.61833C1.01424 0.22242 1.55121 0 2.11111 0ZM15.8333 2.11111H13.1944C12.2146 2.11111 11.2749 2.50035 10.5821 3.19319C9.88924 3.88603 9.5 4.82573 9.5 5.80556V8.44444H7.38889V11.6111H9.5V19H12.6667V11.6111H15.8333V8.44444H12.6667V6.33333C12.6667 6.05338 12.7779 5.7849 12.9758 5.58694C13.1738 5.38899 13.4423 5.27778 13.7222 5.27778H15.8333V2.11111Z" fill="white"/>
</svg>
